Coordinates
version=1
nRows=18
nColumns=63
inDegrees=yes

Units are S.I. units (second, meters, Newtons, ...)
If the header above contains a line with 'inDegrees', this indicates whether rotational values are in degrees (yes) or radians (no).

endheader
time	pelvis_tilt	pelvis_list	pelvis_rotation	pelvis_tx	pelvis_ty	pelvis_tz	hip_flexion_r	hip_adduction_r	hip_rotation_r	knee_angle_r	knee_angle_r_beta	ankle_angle_r	subtalar_angle_r	mtp_angle_r	hip_flexion_l	hip_adduction_l	hip_rotation_l	knee_angle_l	knee_angle_l_beta	ankle_angle_l	subtalar_angle_l	mtp_angle_l	L5_S1_Flex_Ext	L5_S1_Lat_Bending	L5_S1_axial_rotation	L4_L5_Flex_Ext	L4_L5_Lat_Bending	L4_L5_axial_rotation	L3_L4_Flex_Ext	L3_L4_Lat_Bending	L3_L4_axial_rotation	L2_L3_Flex_Ext	L2_L3_Lat_Bending	L2_L3_axial_rotation	L1_L2_Flex_Ext	L1_L2_Lat_Bending	L1_L2_axial_rotation	L1_T12_Flex_Ext	L1_T12_Lat_Bending	L1_T12_axial_rotation	Abs_r3	Abs_r2	Abs_r1	Abs_t1	Abs_t2	neck_flexion	neck_bending	neck_rotation	arm_flex_r	arm_add_r	arm_rot_r	elbow_flex_r	pro_sup_r	wrist_flex_r	wrist_dev_r	arm_flex_l	arm_add_l	arm_rot_l	elbow_flex_l	pro_sup_l	wrist_flex_l	wrist_dev_l
1.610169	3.705565	-0.116279	81.361719	0.448293	0.648053	0.608276	-2.629735	-1.782354	3.170717	12.776945	0.223000	23.586167	-0.733752	0.000000	-2.260297	0.492811	-7.963843	12.726848	0.222125	30.251438	-0.863892	0.000000	-0.017898	0.162791	2.019968	-0.033238	0.216512	2.146216	-0.029404	0.395810	2.146216	-0.020455	0.395810	1.767472	-0.016620	0.331963	1.641224	-0.010227	0.252163	1.514976	-0.127842	1.841522	11.234456	0.000000	0.000000	27.327998	-9.482330	2.815372	5.283319	-14.995880	120.492834	10.567574	20.255945	-12.785421	-14.359202	14.273290	-3.714206	162.803078	0.278856	9.062027	-18.540156	-15.805067
1.627119	4.067706	-0.117460	81.132908	0.446238	0.648135	0.610795	-2.569939	-1.633326	2.768526	12.644286	0.220684	23.387621	0.300229	0.000000	-2.109360	0.348694	-7.182612	12.800116	0.223404	29.876117	-2.329442	0.000000	-0.053680	0.230034	2.113055	-0.099688	0.305945	2.245121	-0.088190	0.559304	2.245121	-0.061350	0.559304	1.848923	-0.049847	0.469085	1.716857	-0.030672	0.356322	1.584791	-0.383428	2.602189	11.752176	0.000000	0.000000	27.059166	-8.639585	1.963718	6.299380	-15.161875	125.995846	9.401038	13.470274	-12.071011	-15.221188	14.889413	-2.944420	167.459031	0.195820	10.141796	-20.783804	-15.121954
1.644068	4.446974	-0.099722	80.985780	0.444155	0.648123	0.613362	-2.525453	-1.443332	2.382691	12.513064	0.218394	23.226143	1.218014	0.000000	-1.975748	0.169622	-6.437609	12.864250	0.224524	29.562806	-3.673837	0.000000	-0.090733	0.297305	2.166655	-0.168500	0.395416	2.302071	-0.149065	0.722867	2.302071	-0.103699	0.722867	1.895823	-0.084255	0.606264	1.760407	-0.051845	0.460525	1.624991	-0.648097	3.363174	12.050283	0.000000	0.000000	26.799432	-7.803717	1.081231	7.318826	-15.366385	130.473668	8.409093	7.713715	-11.445262	-16.049456	15.359562	-2.273774	171.502723	0.071486	10.913384	-22.567998	-14.635538
1.661017	4.835625	-0.072062	80.959921	0.442018	0.648007	0.615920	-2.498307	-1.216575	1.969761	12.375728	0.215997	23.105553	2.005375	0.000000	-1.849065	-0.039816	-5.669805	12.917637	0.225455	29.327544	-4.886432	0.000000	-0.127512	0.363716	2.174720	-0.236802	0.483743	2.310640	-0.209489	0.884340	2.310640	-0.145733	0.884340	1.902880	-0.118408	0.741691	1.766960	-0.072860	0.563397	1.631040	-0.910805	4.114433	12.095139	0.000000	0.000000	26.557786	-6.988210	0.206366	8.224496	-15.588900	133.603983	7.630710	3.204426	-10.810820	-16.737584	15.681545	-1.715898	174.631638	-0.052038	11.377917	-23.731007	-14.364471
1.677966	5.222903	-0.039193	80.996059	0.439900	0.647804	0.618410	-2.473127	-0.970258	1.578359	12.252697	0.213850	23.034088	2.669968	0.000000	-1.739967	-0.265036	-4.965503	12.941298	0.225868	29.176412	-5.922423	0.000000	-0.162433	0.428692	2.147551	-0.301654	0.570160	2.281773	-0.266861	1.042322	2.281773	-0.185644	1.042322	1.879107	-0.150835	0.874189	1.744885	-0.092814	0.664044	1.610663	-1.160240	4.849450	11.944035	0.000000	0.000000	26.333329	-6.199857	-0.620677	8.948735	-15.840453	135.265357	7.109916	0.043852	-10.147723	-17.202720	15.871622	-1.285897	176.759652	-0.090864	11.542581	-24.357784	-14.321663
1.694915	5.633004	-0.007975	81.118120	0.437692	0.647623	0.620813	-2.464854	-0.681342	1.194932	12.113405	0.211419	22.925029	3.188246	0.000000	-1.651872	-0.531148	-4.293916	12.915987	0.225426	29.078286	-6.775504	0.000000	-0.193794	0.497123	2.080852	-0.359895	0.661173	2.210905	-0.318385	1.208704	2.210905	-0.221487	1.208704	1.820745	-0.179957	1.013732	1.690692	-0.110734	0.770043	1.560639	-1.384253	5.623551	11.573074	0.000000	0.000000	26.100791	-5.523776	-1.350713	9.463844	-16.151556	135.256547	6.854903	-1.372525	-9.539797	-17.423355	16.210916	-0.489036	181.934474	-0.991626	7.374774	-24.110336	-15.258875
1.711864	6.004984	0.027501	81.295266	0.435658	0.647383	0.622995	-2.481665	-0.407674	0.834036	11.960489	0.208750	22.857192	3.585061	0.000000	-1.608276	-0.782512	-3.730716	12.807785	0.223538	29.073585	-7.377339	0.000000	-0.219781	0.558935	1.968860	-0.408156	0.743383	2.091913	-0.361079	1.358994	2.091913	-0.251188	1.358994	1.722752	-0.204089	1.139780	1.599698	-0.125583	0.865790	1.476645	-1.569876	6.322781	10.950207	0.000000	0.000000	25.879973	-4.873339	-1.905004	9.803323	-16.477120	133.737989	6.862414	-1.128967	-8.974036	-17.374222	16.281933	-0.139919	183.593021	-1.155897	5.197867	-23.642344	-15.947571
1.728814	6.321661	0.064241	81.514446	0.433827	0.647123	0.624912	-2.521668	-0.170799	0.470082	11.796922	0.205895	22.812620	3.898126	0.000000	-1.614639	-0.996517	-3.225707	12.597181	0.219862	29.118281	-7.803750	0.000000	-0.238480	0.612395	1.808004	-0.442882	0.814485	1.921004	-0.391799	1.488977	1.921004	-0.272559	1.488977	1.582003	-0.221453	1.248796	1.469003	-0.136268	0.948600	1.356003	-1.703441	6.927533	10.055575	0.000000	0.000000	25.655714	-4.230074	-2.211324	10.072779	-16.830807	131.164050	7.076182	0.517968	-8.558638	-17.123511	16.080499	-0.207363	181.894327	-0.662568	4.823593	-22.952864	-16.449056
1.745763	6.582356	0.107832	81.735270	0.432256	0.646863	0.626522	-2.587024	0.025207	0.139075	11.633877	0.203049	22.790827	4.134427	0.000000	-1.689950	-1.175025	-2.885054	12.272641	0.214198	29.219687	-7.953852	0.000000	-0.250449	0.657725	1.612999	-0.465108	0.874774	1.713812	-0.411462	1.599192	1.713812	-0.286238	1.599192	1.411374	-0.232567	1.341232	1.310562	-0.143106	1.018816	1.209749	-1.788930	7.440314	8.971017	0.000000	0.000000	25.417043	-3.615301	-2.273231	10.200780	-17.211229	127.060343	7.552398	4.282983	-8.344737	-16.527271	15.654353	-0.641440	177.356924	0.397910	5.969896	-22.097776	-16.821053
1.762712	6.758652	0.161676	81.970326	0.431038	0.646683	0.627808	-2.687825	0.156268	-0.179916	11.456884	0.199960	22.774901	4.308965	0.000000	-1.838485	-1.291265	-2.643287	11.824139	0.206370	29.306655	-7.897531	0.000000	-0.256209	0.688385	1.395551	-0.475805	0.915553	1.482773	-0.420925	1.673740	1.482773	-0.292821	1.673740	1.221107	-0.237915	1.403756	1.133885	-0.146398	1.066309	1.046663	-1.830073	7.787154	7.761637	0.000000	0.000000	25.175921	-3.046818	-2.220212	10.562311	-17.070481	128.114641	7.042503	4.203468	-7.949349	-16.387799	15.063538	-1.417086	170.580828	1.940470	8.469270	-21.311190	-17.059133
1.779661	6.884415	0.229542	82.194198	0.430116	0.646524	0.628791	-2.825043	0.252103	-0.459497	11.271726	0.196729	22.787501	4.431201	0.000000	-2.056943	-1.374315	-2.537079	11.286719	0.196990	29.415223	-7.636337	0.000000	-0.258462	0.709685	1.175592	-0.479989	0.943882	1.249066	-0.424627	1.725529	1.249066	-0.295396	1.725529	1.028643	-0.240008	1.447191	0.955168	-0.147685	1.099303	0.881694	-1.846167	8.028104	6.538288	0.000000	0.000000	24.951924	-2.580580	-2.100151	10.869904	-16.790792	130.114168	6.397597	4.129736	-7.756747	-16.122010	14.365252	-2.448366	162.069302	3.892439	12.121462	-20.576062	-17.112070
1.796610	6.956783	0.313438	82.398613	0.429480	0.646364	0.629484	-2.991370	0.305382	-0.700145	11.095778	0.193658	22.864621	4.540556	0.000000	-2.334963	-1.412656	-2.465629	10.689518	0.186567	29.519374	-7.331212	0.000000	-0.258454	0.720845	0.969447	-0.479975	0.958723	1.030037	-0.424614	1.752661	1.030037	-0.295387	1.752661	0.848266	-0.240000	1.469946	0.787676	-0.147681	1.116588	0.727085	-1.846111	8.154337	5.391774	0.000000	0.000000	24.767128	-2.212913	-1.993893	11.095465	-16.383870	133.019858	5.609154	4.049114	-7.812864	-15.712963	13.610895	-3.670208	152.342762	6.143588	16.644862	-19.828336	-17.007821
1.813559	6.996016	0.423197	82.630098	0.429038	0.646204	0.629925	-3.200296	0.334229	-1.004505	10.925796	0.190691	23.022828	4.743417	0.000000	-2.675278	-1.434758	-2.411237	10.040141	0.175234	29.611154	-6.955476	0.000000	-0.258976	0.724315	0.780507	-0.480945	0.963339	0.829288	-0.425472	1.761099	0.829288	-0.295984	1.761099	0.682943	-0.240486	1.477023	0.634162	-0.147979	1.121964	0.585380	-1.849843	8.193594	4.340944	0.000000	0.000000	24.632243	-1.940310	-1.953246	11.227627	-15.890026	136.467687	4.705939	3.927576	-7.987665	-15.224515	12.866911	-4.998188	141.851377	8.572642	21.775524	-18.985615	-16.555235
1.830508	6.996108	0.551867	82.787881	0.428987	0.646030	0.630125	-3.426825	0.335733	-1.201673	10.785818	0.188248	23.252269	4.903257	0.000000	-3.054675	-1.428193	-2.492520	9.411025	0.164253	29.729840	-6.471189	0.000000	-0.259932	0.717514	0.627264	-0.482719	0.954294	0.666468	-0.427042	1.744564	0.666468	-0.297076	1.744564	0.548856	-0.241373	1.463155	0.509652	-0.148525	1.111430	0.470448	-1.856666	8.116665	3.488654	0.000000	0.000000	24.542338	-1.678103	-2.023898	11.281412	-15.309680	140.569316	3.713671	3.767732	-8.390976	-14.635626	11.917538	-6.466456	129.477025	11.233108	29.128661	-18.232153	-15.688378
1.847458	6.980461	0.699826	82.936915	0.429157	0.645869	0.630142	-3.678950	0.330486	-1.435198	10.663066	0.186106	23.521534	5.127391	0.000000	-3.479023	-1.415213	-2.497682	8.769661	0.153059	29.789588	-6.094253	0.000000	-0.261405	0.705263	0.502386	-0.485455	0.938000	0.533785	-0.429462	1.714777	0.533785	-0.298760	1.714777	0.439588	-0.242741	1.438173	0.408189	-0.149367	1.092453	0.376789	-1.867190	7.978077	2.794120	0.000000	0.000000	24.484219	-1.452075	-2.178758	11.272681	-14.720598	144.575656	2.752616	3.600352	-8.834871	-14.097654	11.102349	-7.936323	117.679588	13.816361	36.162273	-17.501801	-14.635508
1.864407	6.958002	0.858886	83.121116	0.429484	0.645715	0.630030	-3.953982	0.334558	-1.757258	10.544906	0.184043	23.802444	5.397924	0.000000	-3.920498	-1.408923	-2.373522	8.143915	0.142138	29.801764	-5.836019	0.000000	-0.262689	0.689072	0.391604	-0.487839	0.916466	0.416080	-0.431571	1.675410	0.416080	-0.300227	1.675410	0.342654	-0.243933	1.405156	0.318179	-0.150100	1.067373	0.293703	-1.876359	7.794924	2.177987	0.000000	0.000000	24.456792	-1.231388	-2.359665	11.244747	-14.174306	147.933411	1.950073	3.490090	-9.181949	-13.668386	10.417190	-9.384665	106.791241	16.245120	42.726970	-16.819756	-13.352422
1.881356	6.928641	1.016075	83.306798	0.429980	0.645576	0.629842	-4.221654	0.339903	-2.135226	10.457778	0.182523	24.099235	5.735112	0.000000	-4.385195	-1.410292	-2.192038	7.492264	0.130765	29.746004	-5.634161	0.000000	-0.262453	0.669805	0.291656	-0.487402	0.890841	0.309885	-0.431185	1.628565	0.309885	-0.299958	1.628565	0.255199	-0.243714	1.365867	0.236971	-0.149966	1.037528	0.218742	-1.874679	7.576971	1.622106	0.000000	0.000000	24.463557	-1.040190	-2.530923	11.228882	-13.683433	150.688791	1.323404	3.386433	-9.447323	-13.330767	9.833085	-10.775848	97.049576	18.427165	48.634269	-16.219631	-11.824112
1.898305	6.916898	1.162144	83.554094	0.430520	0.645460	0.629634	-4.479423	0.384188	-2.588097	10.380375	0.181172	24.352058	6.039880	0.000000	-4.849407	-1.452932	-1.922360	6.815372	0.118951	29.634204	-5.429798	0.000000	-0.259360	0.651288	0.186276	-0.481657	0.866213	0.197918	-0.426103	1.583541	0.197918	-0.296423	1.583541	0.162992	-0.240842	1.328106	0.151349	-0.148198	1.008845	0.139707	-1.852582	7.367498	1.036012	0.000000	0.000000	24.499414	-0.894968	-2.659300	11.257591	-13.270550	152.554894	0.937413	3.224424	-9.532396	-13.092890	9.309074	-12.057522	88.647850	20.261845	53.724357	-15.744687	-10.137183
